# xmcd
#
# Track frame offsets:
#	150
#	22494
#	44047
#	65540
#	88941
#	103864
#	123775
#	137587
#	156105
#	170028
#	191060
#	204267
#
# Disc length: 2964 seconds
#
# Revision: 1
# Processed by: cddbd v1.4PL0 Copyright (c) Steve Scherf et al.
# Submitted via: audiograbber 1.81.02
#
DISCID=b30b920c
DTITLE=Climax Blues Band - Big Blues (The Songs Of Willy Dixon)
DYEAR=2002
DGENRE=Blues
TTITLE0=Little Red Rooster
TTITLE1=Spoonful
TTITLE2=The Seventh Son
TTITLE3=Third Degree
TTITLE4=I´m Ready
TTITLE5=Wang Dang Doodle
TTITLE6=My Babe
TTITLE7=I´m Your Hoochie Coochie Man
TTITLE8=You Can´t Judge A Book By Looking The Cover
TTITLE9=Big Boss Man
TTITLE10=I Love The Life I Live
TTITLE11=That´s My Baby
EXTD=
EXTT0=
EXTT1=
EXTT2=
EXTT3=
EXTT4=
EXTT5=
EXTT6=
EXTT7=
EXTT8=
EXTT9=
EXTT10=
EXTT11=
PLAYORDER=
